<?xml version="1.0" encoding="UTF-8" standalone="no"?>
<svg width="28px" height="28px" viewBox="0 0 28 28" version="1.1" xmlns="http://www.w3.org/2000/svg" xmlns:xlink="http://www.w3.org/1999/xlink">
    <!-- Generator: Sketch 3.8.3 (29802) - http://www.bohemiancoding.com/sketch -->
    <title>Cards Icon</title>
    <desc>Created with Sketch.</desc>
    <defs></defs>
    <g id="Symbols" stroke="none" stroke-width="1" fill="none" fill-rule="evenodd">
        <g id="Menu-Icons" transform="translate(-11.000000, -69.000000)" fill="#FFFFFF">
            <g id="Icons" transform="translate(10.000000, 19.000000)">
                <g transform="translate(1.000000, 0.000000)" id="Cards-Icon">
                    <g transform="translate(2.000000, 52.000000)">
                        <path d="M2,9.04 L9.03,9.04 L9.03,2 L2,2 L2,9.04 Z M10.03,11.04 L1,11.04 C0.44,11.04 0,10.59 0,10.04 L0,1 C0,0.45 0.44,0 1,0 L10.03,0 C10.58,0 11.03,0.45 11.03,1 L11.03,10.04 C11.03,10.59 10.58,11.04 10.03,11.04 L10.03,11.04 Z" id="Fill-637"></path>
                        <path d="M14.36,9.04 L21.4,9.04 L21.4,2 L14.36,2 L14.36,9.04 Z M13.36,11.04 C12.81,11.04 12.36,10.59 12.36,10.04 L12.36,1 C12.36,0.45 12.81,0 13.36,0 L22.4,0 C22.95,0 23.4,0.45 23.4,1 L23.4,10.04 C23.4,10.59 22.95,11.04 22.4,11.04 L13.36,11.04 Z" id="Fill-638"></path>
                        <path d="M2,21.4 L9.03,21.4 L9.03,14.37 L2,14.37 L2,21.4 Z M10.03,23.4 L1,23.4 C0.44,23.4 0,22.96 0,22.4 L0,13.37 C0,12.82 0.44,12.37 1,12.37 L10.03,12.37 C10.58,12.37 11.03,12.82 11.03,13.37 L11.03,22.4 C11.03,22.96 10.58,23.4 10.03,23.4 L10.03,23.4 Z" id="Fill-639"></path>
                        <path d="M14.36,21.4 L21.4,21.4 L21.4,14.37 L14.36,14.37 L14.36,21.4 Z M22.4,23.4 L13.36,23.4 C12.81,23.4 12.36,22.96 12.36,22.4 L12.36,13.37 C12.36,12.82 12.81,12.37 13.36,12.37 L22.4,12.37 C22.95,12.37 23.4,12.82 23.4,13.37 L23.4,22.4 C23.4,22.96 22.95,23.4 22.4,23.4 L22.4,23.4 Z" id="Fill-640"></path>
                    </g>
                </g>
            </g>
        </g>
    </g>
</svg>