<?xml version="1.0" encoding="UTF-8" standalone="no"?>
<svg width="28px" height="28px" viewBox="0 0 28 28" version="1.1" xmlns="http://www.w3.org/2000/svg" xmlns:xlink="http://www.w3.org/1999/xlink">
    <!-- Generator: Sketch 3.8.3 (29802) - http://www.bohemiancoding.com/sketch -->
    <title>Citations Icon</title>
    <desc>Created with Sketch.</desc>
    <defs></defs>
    <g id="Symbols" stroke="none" stroke-width="1" fill="none" fill-rule="evenodd">
        <g id="Menu-Icons" transform="translate(-11.000000, -169.000000)" fill="#FFFFFF">
            <g id="Icons" transform="translate(10.000000, 19.000000)">
                <g transform="translate(1.000000, 0.000000)" id="Citations-Icon">
                    <g transform="translate(1.000000, 152.000000)">
                        <path d="M18.17,21.98 L4,21.98 C1.79,21.98 0,20.19 0,17.98 L0,16.82 C0,14.61 1.79,12.82 4,12.82 L18.17,12.82 C18.72,12.82 19.17,13.26 19.17,13.82 C19.17,14.37 18.72,14.82 18.17,14.82 L4,14.82 C2.9,14.82 2,15.71 2,16.82 L2,17.98 C2,19.08 2.9,19.98 4,19.98 L18.17,19.98 C18.72,19.98 19.17,20.43 19.17,20.98 C19.17,21.53 18.72,21.98 18.17,21.98" id="Fill-559"></path>
                        <path d="M6.42,3.69 C6.28,3.69 6.13,3.66 5.99,3.59 C5.49,3.35 5.28,2.75 5.53,2.25 C6.2,0.87 7.58,0 9.12,0 L23.54,0 C24.09,0 24.54,0.45 24.54,1 C24.54,1.56 24.09,2 23.54,2 L9.12,2 C8.35,2 7.66,2.44 7.32,3.13 C7.15,3.49 6.8,3.69 6.42,3.69" id="Fill-560"></path>
                        <path d="M1.35,16.38 C1.23,16.38 1.1,16.36 0.98,16.31 C0.47,16.1 0.22,15.52 0.42,15.01 L5.55,2.24 C5.75,1.72 6.34,1.47 6.85,1.68 C7.36,1.89 7.61,2.47 7.4,2.98 L2.28,15.75 C2.12,16.14 1.75,16.38 1.35,16.38" id="Fill-561"></path>
                        <path d="M18.41,22 C18.29,22 18.16,21.98 18.04,21.93 C17.53,21.73 17.28,21.14 17.49,20.63 L22.61,7.86 C22.82,7.35 23.4,7.1 23.91,7.31 C24.42,7.51 24.67,8.09 24.47,8.61 L19.34,21.38 C19.19,21.77 18.81,22 18.41,22" id="Fill-562"></path>
                        <path d="M18.17,14.82 C18.04,14.82 17.9,14.79 17.78,14.74 C17.27,14.52 17.03,13.94 17.24,13.43 L22.62,0.62 C22.83,0.11 23.42,-0.13 23.93,0.08 C24.44,0.29 24.67,0.88 24.46,1.39 L19.09,14.2 C18.93,14.58 18.56,14.82 18.17,14.82" id="Fill-563"></path>
                        <path d="M17.48,16.96 L3.85,16.96 C3.58,16.96 3.35,16.74 3.35,16.46 C3.35,16.19 3.58,15.96 3.85,15.96 L17.48,15.96 C17.75,15.96 17.98,16.19 17.98,16.46 C17.98,16.74 17.75,16.96 17.48,16.96" id="Fill-564"></path>
                        <path d="M17.48,18.82 L3.85,18.82 C3.58,18.82 3.35,18.59 3.35,18.32 C3.35,18.04 3.58,17.82 3.85,17.82 L17.48,17.82 C17.75,17.82 17.98,18.04 17.98,18.32 C17.98,18.59 17.75,18.82 17.48,18.82" id="Fill-565"></path>
                    </g>
                </g>
            </g>
        </g>
    </g>
</svg>