<?xml version="1.0" encoding="UTF-8" standalone="no"?>
<svg width="28px" height="28px" viewBox="0 0 28 28" version="1.1" xmlns="http://www.w3.org/2000/svg" xmlns:xlink="http://www.w3.org/1999/xlink">
    <!-- Generator: Sketch 3.8.3 (29802) - http://www.bohemiancoding.com/sketch -->
    <title>Image Icon</title>
    <desc>Created with Sketch.</desc>
    <defs></defs>
    <g id="Symbols" stroke="none" stroke-width="1" fill="none" fill-rule="evenodd">
        <g id="Menu-Icons" transform="translate(-11.000000, -118.000000)" fill="#FFFFFF">
            <g id="Icons" transform="translate(10.000000, 19.000000)">
                <g transform="translate(1.000000, 0.000000)" id="Image-Icon">
                    <g transform="translate(1.000000, 103.000000)">
                        <path d="M2.7,18.47 L22.36,18.47 L22.36,2.41 L2.7,2.41 L2.7,18.47 Z M23.36,20.47 L1.7,20.47 C1.15,20.47 0.7,20.02 0.7,19.47 L0.7,1.41 C0.7,0.86 1.15,0.41 1.7,0.41 L23.36,0.41 C23.92,0.41 24.36,0.86 24.36,1.41 L24.36,19.47 C24.36,20.02 23.92,20.47 23.36,20.47 L23.36,20.47 Z" id="Fill-902"></path>
                        <path d="M22.71,16.86 C22.48,16.86 22.25,16.78 22.06,16.62 L18.04,13.17 L13.04,16.5 L6.69,9.68 L2.42,14.09 C2.03,14.49 1.4,14.5 1,14.11 C0.6,13.73 0.6,13.1 0.98,12.7 L6.72,6.77 L13.34,13.9 L18.19,10.67 L23.36,15.1 C23.78,15.46 23.83,16.09 23.47,16.51 C23.27,16.74 22.99,16.86 22.71,16.86" id="Fill-903"></path>
                        <path d="M13.72,5.16 C12.85,5.16 12.14,5.87 12.14,6.75 C12.14,7.62 12.85,8.33 13.72,8.33 C14.6,8.33 15.31,7.62 15.31,6.75 C15.31,5.87 14.6,5.16 13.72,5.16 L13.72,5.16 Z M13.72,10.33 C11.75,10.33 10.14,8.73 10.14,6.75 C10.14,4.77 11.75,3.16 13.72,3.16 C15.7,3.16 17.31,4.77 17.31,6.75 C17.31,8.73 15.7,10.33 13.72,10.33 L13.72,10.33 Z" id="Fill-904"></path>
                    </g>
                </g>
            </g>
        </g>
    </g>
</svg>