<?xml version="1.0" encoding="UTF-8" standalone="no"?>
<svg width="28px" height="28px" viewBox="0 0 28 28" version="1.1" xmlns="http://www.w3.org/2000/svg" xmlns:xlink="http://www.w3.org/1999/xlink">
    <!-- Generator: Sketch 3.8.3 (29802) - http://www.bohemiancoding.com/sketch -->
    <title>Integrations Icon</title>
    <desc>Created with Sketch.</desc>
    <defs></defs>
    <g id="Symbols" stroke="none" stroke-width="1" fill="none" fill-rule="evenodd">
        <g id="Menu-Icons" transform="translate(-11.000000, -519.000000)" fill="#FFFFFF">
            <g id="Icons" transform="translate(11.000000, 19.000000)">
                <g id="Integrations-Icon" transform="translate(2.000000, 502.000000)">
                    <path d="M11.88,2 C6.43,2 2,6.43 2,11.875 C2,17.321 6.43,21.75 11.88,21.75 C17.32,21.75 21.75,17.321 21.75,11.875 C21.75,6.43 17.32,2 11.88,2 L11.88,2 Z M11.88,23.75 C5.33,23.75 0,18.423 0,11.875 C0,5.327 5.33,0 11.88,0 C18.43,0 23.75,5.327 23.75,11.875 C23.75,18.423 18.43,23.75 11.88,23.75 L11.88,23.75 Z" id="Fill-143"></path>
                    <path d="M11.88,1.5 C8.69,1.5 6.09,6.154 6.09,11.875 C6.09,17.596 8.69,22.25 11.88,22.25 C15.07,22.25 17.67,17.596 17.67,11.875 C17.67,6.154 15.07,1.5 11.88,1.5 L11.88,1.5 Z M11.88,23.25 C8.13,23.25 5.09,18.147 5.09,11.875 C5.09,5.603 8.13,0.5 11.88,0.5 C15.62,0.5 18.67,5.603 18.67,11.875 C18.67,18.147 15.62,23.25 11.88,23.25 L11.88,23.25 Z" id="Fill-144"></path>
                    <path d="M12.38,1.512 L12.38,22.238 C17.87,21.977 22.25,17.428 22.25,11.875 C22.25,6.321 17.87,1.774 12.38,1.512 L12.38,1.512 Z M11.88,23.25 C11.6,23.25 11.38,23.027 11.38,22.75 L11.38,1 C11.38,0.724 11.6,0.5 11.88,0.5 C18.15,0.5 23.25,5.603 23.25,11.875 C23.25,18.147 18.15,23.25 11.88,23.25 L11.88,23.25 Z" id="Fill-145"></path>
                    <path d="M2.06,15.208 L21.69,15.208 C22.07,14.121 22.25,13.001 22.25,11.875 C22.25,10.749 22.07,9.629 21.69,8.541 L2.06,8.541 C1.69,9.629 1.5,10.749 1.5,11.875 C1.5,13 1.69,14.119 2.06,15.208 L2.06,15.208 Z M22.04,16.208 L1.71,16.208 C1.5,16.208 1.32,16.079 1.24,15.884 C0.75,14.581 0.5,13.233 0.5,11.875 C0.5,10.516 0.75,9.166 1.24,7.864 C1.32,7.67 1.5,7.541 1.71,7.541 L22.04,7.541 C22.25,7.541 22.44,7.67 22.51,7.864 C23.01,9.166 23.25,10.516 23.25,11.875 C23.25,13.235 23.01,14.584 22.51,15.885 C22.44,16.079 22.25,16.208 22.04,16.208 L22.04,16.208 Z" id="Fill-146"></path>
                </g>
            </g>
        </g>
    </g>
</svg>