<?xml version="1.0" encoding="UTF-8" standalone="no"?>
<svg width="28px" height="28px" viewBox="0 0 28 28" version="1.1" xmlns="http://www.w3.org/2000/svg" xmlns:xlink="http://www.w3.org/1999/xlink">
    <!-- Generator: Sketch 3.8.3 (29802) - http://www.bohemiancoding.com/sketch -->
    <title>Menu Icon</title>
    <desc>Created with Sketch.</desc>
    <defs></defs>
    <g id="Symbols" stroke="none" stroke-width="1" fill="none" fill-rule="evenodd">
        <g id="Menu-Icons" transform="translate(-11.000000, -19.000000)" fill="#FFFFFF">
            <g id="Icons" transform="translate(10.000000, 19.000000)">
                <g transform="translate(1.000000, 0.000000)" id="Menu-Icon">
                    <g transform="translate(2.000000, 5.000000)">
                        <path d="M1,2 C0.45,2 0,1.56 0,1 C0,0.45 0.45,0 1,0 L22.67,0 C23.22,0 23.67,0.45 23.67,1 C23.67,1.56 23.22,2 22.67,2 L1,2 Z" id="Fill-646"></path>
                        <path d="M1,7.25 C0.45,7.25 0,6.81 0,6.25 C0,5.7 0.45,5.25 1,5.25 L22.67,5.25 C23.22,5.25 23.67,5.7 23.67,6.25 C23.67,6.81 23.22,7.25 22.67,7.25 L1,7.25 Z" id="Fill-647"></path>
                        <path d="M1,12.5 C0.45,12.5 0,12.06 0,11.5 C0,10.95 0.45,10.5 1,10.5 L22.67,10.5 C23.22,10.5 23.67,10.95 23.67,11.5 C23.67,12.06 23.22,12.5 22.67,12.5 L1,12.5 Z" id="Fill-648"></path>
                        <path d="M1,17.75 C0.45,17.75 0,17.31 0,16.75 C0,16.2 0.45,15.75 1,15.75 L22.67,15.75 C23.22,15.75 23.67,16.2 23.67,16.75 C23.67,17.31 23.22,17.75 22.67,17.75 L1,17.75 Z" id="Fill-649"></path>
                    </g>
                </g>
            </g>
        </g>
    </g>
</svg>