<?xml version="1.0" encoding="UTF-8" standalone="no"?>
<svg width="28px" height="28px" viewBox="0 0 28 28" version="1.1" xmlns="http://www.w3.org/2000/svg" xmlns:xlink="http://www.w3.org/1999/xlink">
    <!-- Generator: Sketch 3.8.3 (29802) - http://www.bohemiancoding.com/sketch -->
    <title>Projects Icon</title>
    <desc>Created with Sketch.</desc>
    <defs></defs>
    <g id="Symbols" stroke="none" stroke-width="1" fill="none" fill-rule="evenodd">
        <g id="Menu-Icons" transform="translate(-11.000000, -218.000000)" fill="#FFFFFF">
            <g id="Icons" transform="translate(10.000000, 19.000000)">
                <g transform="translate(1.000000, 0.000000)" id="Projects-Icon">
                    <g transform="translate(0.000000, 202.000000)">
                        <path d="M3.12,19.05 L21.55,19.05 L25.1,7.87 L6.67,7.87 L3.12,19.05 L3.12,19.05 Z M22.28,21.05 L1.75,21.05 C1.43,21.05 1.13,20.9 0.94,20.64 C0.75,20.38 0.7,20.05 0.8,19.75 L4.99,6.57 C5.12,6.15 5.51,5.87 5.94,5.87 L26.47,5.87 C26.79,5.87 27.09,6.02 27.28,6.28 C27.47,6.54 27.52,6.87 27.42,7.17 L23.23,20.35 C23.1,20.77 22.71,21.05 22.28,21.05 L22.28,21.05 Z" id="Fill-488"></path>
                        <path d="M1,21.05 C0.45,21.05 0,20.6 0,20.05 L0,2 C0,0.89 0.9,0 2,0 L9,0 C10.1,0 11,0.89 11,2 L11,2.72 L21.53,2.72 C22.08,2.72 22.53,3.17 22.53,3.72 C22.53,4.27 22.08,4.72 21.53,4.72 L10,4.72 C9.45,4.72 9,4.27 9,3.72 L9,2 L2,2 L2,20.05 C2,20.6 1.55,21.05 1,21.05" id="Fill-489"></path>
                    </g>
                </g>
            </g>
        </g>
    </g>
</svg>