<?xml version="1.0" encoding="UTF-8" standalone="no"?>
<svg width="16px" height="16px" viewBox="0 0 16 16" version="1.1" xmlns="http://www.w3.org/2000/svg" xmlns:xlink="http://www.w3.org/1999/xlink">
    <!-- Generator: Sketch 3.8.3 (29802) - http://www.bohemiancoding.com/sketch -->
    <title>Settings Icon</title>
    <desc>Created with Sketch.</desc>
    <defs></defs>
    <g id="Sans-Serif-Font-Treatment" stroke="none" stroke-width="1" fill="none" fill-rule="evenodd">
        <g id="Desktop-HD" transform="translate(-1151.000000, -17.000000)" fill="#363636">
            <g id="Panel-Icons" transform="translate(1120.000000, 17.000000)">
                <path d="M42.5555556,8 C42.5555556,9.96355556 40.9644444,11.5555556 39,11.5555556 C37.0364444,11.5555556 35.4444444,9.96355556 35.4444444,8 C35.4444444,6.03644444 37.0364444,4.44444444 39,4.44444444 C40.9644444,4.44444444 42.5555556,6.03644444 42.5555556,8 L42.5555556,8 Z M47,9.77777778 L47,6.22222222 L44.9608889,6.22222222 C44.8382222,5.80888889 44.6764444,5.41244444 44.4737778,5.04 L45.9137778,3.60088889 L43.4,1.08622222 L41.96,2.52622222 C41.5875556,2.32444444 41.1911111,2.16266667 40.7777778,2.03911111 L40.7777778,0 L37.2222222,0 L37.2222222,2.03911111 C36.8088889,2.16266667 36.4124444,2.32444444 36.04,2.52622222 L34.6008889,1.08622222 L32.0862222,3.60088889 L33.5262222,5.04 C33.3244444,5.41244444 33.1626667,5.80888889 33.0391111,6.22222222 L31,6.22222222 L31,9.77777778 L33.0391111,9.77777778 C33.1626667,10.1911111 33.3244444,10.5875556 33.5262222,10.96 L32.0862222,12.4 L34.6008889,14.9137778 L36.04,13.4737778 C36.4124444,13.6764444 36.8088889,13.8382222 37.2222222,13.9608889 L37.2222222,16 L40.7777778,16 L40.7777778,13.9608889 C41.1911111,13.8382222 41.5875556,13.6764444 41.96,13.4737778 L43.4,14.9137778 L45.9137778,12.4 L44.4737778,10.96 C44.6764444,10.5875556 44.8382222,10.1911111 44.9608889,9.77777778 L47,9.77777778 L47,9.77777778 Z" id="Settings-Icon"></path>
            </g>
        </g>
    </g>
</svg>