<svg width="28" height="28" viewBox="0 0 28 28" xmlns="http://www.w3.org/2000/svg"><title>Cards Icon</title><g fill="#FFF" fill-rule="evenodd"><path d="M4 11.04h7.03V4H4v7.04zm8.03 2H3c-.56 0-1-.45-1-1V3c0-.55.44-1 1-1h9.03c.55 0 1 .45 1 1v9.04c0 .55-.45 1-1 1zM16.36 11.04h7.04V4h-7.04v7.04zm-1 2c-.55 0-1-.45-1-1V3c0-.55.45-1 1-1h9.04c.55 0 1 .45 1 1v9.04c0 .55-.45 1-1 1h-9.04zM4 23.4h7.03v-7.03H4v7.03zm8.03 2H3c-.56 0-1-.44-1-1v-9.03c0-.55.44-1 1-1h9.03c.55 0 1 .45 1 1v9.03c0 .56-.45 1-1 1zM16.36 23.4h7.04v-7.03h-7.04v7.03zm8.04 2h-9.04c-.55 0-1-.44-1-1v-9.03c0-.55.45-1 1-1h9.04c.55 0 1 .45 1 1v9.03c0 .56-.45 1-1 1z"/></g></svg>