<svg width="28" height="28" viewBox="0 0 28 28" xmlns="http://www.w3.org/2000/svg"><title>Citations Icon</title><g fill="#FFF" fill-rule="evenodd"><path d="M19.17 23.98H5c-2.21 0-4-1.79-4-4v-1.16c0-2.21 1.79-4 4-4h14.17c.55 0 1 .44 1 1 0 .55-.45 1-1 1H5a2 2 0 0 0-2 2v1.16c0 1.1.9 2 2 2h14.17c.55 0 1 .45 1 1s-.45 1-1 1M7.42 5.69c-.14 0-.29-.03-.43-.1a.992.992 0 0 1-.46-1.34A3.974 3.974 0 0 1 10.12 2h14.42c.55 0 1 .45 1 1 0 .56-.45 1-1 1H10.12c-.77 0-1.46.44-1.8 1.13-.17.36-.52.56-.9.56"/><path d="M2.35 18.38c-.12 0-.25-.02-.37-.07-.51-.21-.76-.79-.56-1.3L6.55 4.24a.99.99 0 0 1 1.3-.56c.51.21.76.79.55 1.3L3.28 17.75c-.16.39-.53.63-.93.63M19.41 24a.994.994 0 0 1-.92-1.37l5.12-12.77a1.004 1.004 0 0 1 1.86.75l-5.13 12.77c-.15.39-.53.62-.93.62M19.17 16.82a1.008 1.008 0 0 1-.93-1.39l5.38-12.81c.21-.51.8-.75 1.31-.54a1 1 0 0 1 .53 1.31L20.09 16.2c-.16.38-.53.62-.92.62M18.48 18.96H4.85c-.27 0-.5-.22-.5-.5 0-.27.23-.5.5-.5h13.63c.27 0 .5.23.5.5 0 .28-.23.5-.5.5M18.48 20.82H4.85c-.27 0-.5-.23-.5-.5 0-.28.23-.5.5-.5h13.63c.27 0 .5.22.5.5 0 .27-.23.5-.5.5"/></g></svg>