<svg width="28" height="28" viewBox="0 0 28 28" xmlns="http://www.w3.org/2000/svg"><title>Image Icon</title><g fill="#FFF" fill-rule="evenodd"><path d="M3.7 22.47h19.66V6.41H3.7v16.06zm20.66 2H2.7c-.55 0-1-.45-1-1V5.41c0-.55.45-1 1-1h21.66c.56 0 1 .45 1 1v18.06c0 .55-.44 1-1 1z"/><path d="M23.71 20.86c-.23 0-.46-.08-.65-.24l-4.02-3.45-5 3.33-6.35-6.82-4.27 4.41c-.39.4-1.02.41-1.42.02a.996.996 0 0 1-.02-1.41l5.74-5.93 6.62 7.13 4.85-3.23 5.17 4.43a.999.999 0 0 1-.65 1.76"/><path d="M14.72 9.16a1.586 1.586 0 1 0 .011 3.171 1.586 1.586 0 0 0-.011-3.171zm0 5.17c-1.97 0-3.58-1.6-3.58-3.58s1.61-3.59 3.58-3.59c1.98 0 3.59 1.61 3.59 3.59 0 1.98-1.61 3.58-3.59 3.58z"/></g></svg>