<svg width="28" height="28" viewBox="0 0 28 28" xmlns="http://www.w3.org/2000/svg"><title>Integrations Icon</title><g fill="#FFF" fill-rule="evenodd"><path d="M13.88 4C8.43 4 4 8.43 4 13.875c0 5.446 4.43 9.875 9.88 9.875 5.44 0 9.87-4.429 9.87-9.875C23.75 8.43 19.32 4 13.88 4zm0 21.75C7.33 25.75 2 20.423 2 13.875S7.33 2 13.88 2c6.55 0 11.87 5.327 11.87 11.875S20.43 25.75 13.88 25.75z"/><path d="M13.88 3.5c-3.19 0-5.79 4.654-5.79 10.375s2.6 10.375 5.79 10.375 5.79-4.654 5.79-10.375S17.07 3.5 13.88 3.5zm0 21.75c-3.75 0-6.79-5.103-6.79-11.375S10.13 2.5 13.88 2.5c3.74 0 6.79 5.103 6.79 11.375S17.62 25.25 13.88 25.25z"/><path d="M14.38 3.512v20.726c5.49-.261 9.87-4.81 9.87-10.363 0-5.554-4.38-10.101-9.87-10.363zm-.5 21.738c-.28 0-.5-.223-.5-.5V3c0-.276.22-.5.5-.5 6.27 0 11.37 5.103 11.37 11.375S20.15 25.25 13.88 25.25z"/><path d="M4.06 17.208h19.63c.38-1.087.56-2.207.56-3.333 0-1.126-.18-2.246-.56-3.334H4.06a10.333 10.333 0 0 0-.56 3.334c0 1.125.19 2.244.56 3.333zm19.98 1H3.71a.507.507 0 0 1-.47-.324 11.355 11.355 0 0 1-.74-4.009c0-1.359.25-2.709.74-4.011a.508.508 0 0 1 .47-.323h20.33c.21 0 .4.129.47.323.5 1.302.74 2.652.74 4.011 0 1.36-.24 2.709-.74 4.01a.498.498 0 0 1-.47.323z"/></g></svg>