<svg width="28" height="28" viewBox="0 0 28 28" xmlns="http://www.w3.org/2000/svg"><title>Projects Icon</title><g fill="#FFF" fill-rule="evenodd"><path d="M3.12 22.05h18.43l3.55-11.18H6.67L3.12 22.05zm19.16 2H1.75a1 1 0 0 1-.81-.41.98.98 0 0 1-.14-.89L4.99 9.57c.13-.42.52-.7.95-.7h20.53a1 1 0 0 1 .81.41c.19.26.24.59.14.89l-4.19 13.18c-.13.42-.52.7-.95.7z"/><path d="M1 24.05c-.55 0-1-.45-1-1V5a2 2 0 0 1 2-2h7a2 2 0 0 1 2 2v.72h10.53c.55 0 1 .45 1 1s-.45 1-1 1H10c-.55 0-1-.45-1-1V5H2v18.05c0 .55-.45 1-1 1"/></g></svg>