<svg width="16" height="16" viewBox="0 0 16 16" xmlns="http://www.w3.org/2000/svg"><title>Settings Icon</title><path d="M11.556 8a3.555 3.555 0 1 1-7.11 0 3.555 3.555 0 0 1 7.11 0zM16 9.778V6.222h-2.04a6.103 6.103 0 0 0-.486-1.182l1.44-1.44L12.4 1.087l-1.44 1.44a6.216 6.216 0 0 0-1.182-.487V0H6.222v2.04c-.413.123-.81.284-1.182.486L3.6 1.086 1.087 3.601l1.44 1.439a6.216 6.216 0 0 0-.487 1.182H0v3.556h2.04c.123.413.284.81.486 1.182l-1.44 1.44 2.515 2.514 1.439-1.44c.372.202.769.364 1.182.487V16h3.556v-2.04c.413-.122.81-.284 1.182-.486l1.44 1.44 2.514-2.514-1.44-1.44c.202-.372.364-.769.487-1.182H16z" fill="#363636" fill-rule="evenodd"/></svg>